<?xml version="1.0" encoding="UTF-8"?>
<svg width="900" height="900" viewBox="0 0 900 900" xmlns="http://www.w3.org/2000/svg">
<rect width="900" height="900" fill="#f8fafc" rx="24"/><path d="M 477.90,50.97 A 400,400 0 0,1 809.52,625.35 L 726.83,585.02 A 308,308 0 0,0 471.48,142.75 Z" fill="#dcfce7" stroke="#16a34a" stroke-width="2"/><text x="756.57" y="273.00" text-anchor="middle" dominant-baseline="middle" fill="#16a34a" font-size="15" font-weight="bold" font-family="Inter,Arial,sans-serif">Enable</text><path d="M 781.62,673.68 A 400,400 0 0,1 118.38,673.68 L 194.66,622.23 A 308,308 0 0,0 705.34,622.23 Z" fill="#dbeafe" stroke="#2563eb" stroke-width="2"/><text x="450.00" y="804.00" text-anchor="middle" dominant-baseline="middle" fill="#2563eb" font-size="15" font-weight="bold" font-family="Inter,Arial,sans-serif">Grow</text><path d="M 90.48,625.35 A 400,400 0 0,1 422.10,50.97 L 428.52,142.75 A 308,308 0 0,0 173.17,585.02 Z" fill="#fce7f3" stroke="#db2777" stroke-width="2"/><text x="143.43" y="273.00" text-anchor="middle" dominant-baseline="middle" fill="#db2777" font-size="15" font-weight="bold" font-family="Inter,Arial,sans-serif">Protect</text><path d="M 457.85,150.10 A 300,300 0 0,1 656.51,232.39 L 555.32,339.02 A 153,153 0 0,0 454.01,297.05 Z" fill="#ede9fe" stroke="#818cf8" stroke-width="2"/><text x="536.68" y="240.74" text-anchor="middle" dominant-baseline="middle" fill="#6366f1" font-size="12" font-weight="600" font-family="Inter,Arial,sans-serif">Identity</text><path d="M 667.61,243.49 A 300,300 0 0,1 749.90,442.15 L 602.95,445.99 A 153,153 0 0,0 560.98,344.68 Z" fill="#ede9fe" stroke="#818cf8" stroke-width="2"/><text x="659.26" y="363.32" text-anchor="middle" dominant-baseline="middle" fill="#6366f1" font-size="12" font-weight="600" font-family="Inter,Arial,sans-serif">Conversations</text><path d="M 749.90,457.85 A 300,300 0 0,1 667.61,656.51 L 560.98,555.32 A 153,153 0 0,0 602.95,454.01 Z" fill="#ede9fe" stroke="#818cf8" stroke-width="2"/><text x="659.26" y="536.68" text-anchor="middle" dominant-baseline="middle" fill="#6366f1" font-size="12" font-weight="600" font-family="Inter,Arial,sans-serif">Sharing</text><path d="M 656.51,667.61 A 300,300 0 0,1 457.85,749.90 L 454.01,602.95 A 153,153 0 0,0 555.32,560.98 Z" fill="#ede9fe" stroke="#818cf8" stroke-width="2"/><text x="536.68" y="659.26" text-anchor="middle" dominant-baseline="middle" fill="#6366f1" font-size="12" font-weight="600" font-family="Inter,Arial,sans-serif">Presence</text><path d="M 442.15,749.90 A 300,300 0 0,1 243.49,667.61 L 344.68,560.98 A 153,153 0 0,0 445.99,602.95 Z" fill="#ede9fe" stroke="#818cf8" stroke-width="2"/><text x="363.32" y="659.26" text-anchor="middle" dominant-baseline="middle" fill="#6366f1" font-size="12" font-weight="600" font-family="Inter,Arial,sans-serif">Relationships</text><path d="M 232.39,656.51 A 300,300 0 0,1 150.10,457.85 L 297.05,454.01 A 153,153 0 0,0 339.02,555.32 Z" fill="#ede9fe" stroke="#818cf8" stroke-width="2"/><text x="240.74" y="536.68" text-anchor="middle" dominant-baseline="middle" fill="#6366f1" font-size="12" font-weight="600" font-family="Inter,Arial,sans-serif">Reputation</text><path d="M 150.10,442.15 A 300,300 0 0,1 232.39,243.49 L 339.02,344.68 A 153,153 0 0,0 297.05,445.99 Z" fill="#ede9fe" stroke="#818cf8" stroke-width="2"/><text x="240.74" y="363.32" text-anchor="middle" dominant-baseline="middle" fill="#6366f1" font-size="12" font-weight="600" font-family="Inter,Arial,sans-serif">Groups</text><path d="M 243.49,232.39 A 300,300 0 0,1 442.15,150.10 L 445.99,297.05 A 153,153 0 0,0 344.68,339.02 Z" fill="#ede9fe" stroke="#818cf8" stroke-width="2"/><text x="363.32" y="240.74" text-anchor="middle" dominant-baseline="middle" fill="#6366f1" font-size="12" font-weight="600" font-family="Inter,Arial,sans-serif">Agency</text><path d="M 462.64,305.55 A 145,145 0 0,1 462.64,594.45 L 457.23,532.68 A 83,83 0 0,0 457.23,367.32 Z" fill="#ccfbf1" stroke="#0d9488" stroke-width="2"/><text x="564.00" y="444.00" text-anchor="middle" fill="#0d9488" font-size="11" font-weight="700" font-family="Inter,Arial,sans-serif"><tspan x="564.00" dy="13">Platform</tspan><tspan x="564.00" dy="13">Intent</tspan></text><path d="M 437.36,594.45 A 145,145 0 0,1 437.36,305.55 L 442.77,367.32 A 83,83 0 0,0 442.77,532.68 Z" fill="#ccfbf1" stroke="#0d9488" stroke-width="2"/><text x="336.00" y="444.00" text-anchor="middle" fill="#0d9488" font-size="11" font-weight="700" font-family="Inter,Arial,sans-serif"><tspan x="336.00" dy="13">Experience</tspan><tspan x="336.00" dy="13">Intent</tspan></text><circle cx="450.0" cy="450.0" r="75" fill="#6366f1" stroke="white" stroke-width="3"/><text x="450.0" y="442.0" text-anchor="middle" fill="white" font-size="13" font-weight="bold" font-family="Inter,Arial,sans-serif">Social</text><text x="450.0" y="458.0" text-anchor="middle" fill="white" font-size="13" font-weight="bold" font-family="Inter,Arial,sans-serif">Object</text><text x="450.0" y="38" text-anchor="middle" fill="#374151" font-size="20" font-weight="800" font-family="Inter,Arial,sans-serif">Social Design Framework</text>
</svg>